<?xml version="1.0" encoding="UTF-8" ?>
<!DOCTYPE svg PUBLIC "-//W3C//DTD SVG 1.1//EN" "http://www.w3.org/Graphics/SVG/1.1/DTD/svg11.dtd">
<svg width="660pt" height="659pt" viewBox="0 0 660 659" version="1.1" xmlns="http://www.w3.org/2000/svg">
<path fill="#feffff" d=" M 0.00 0.00 L 291.44 0.00 C 276.05 3.42 259.63 4.03 245.04 10.12 C 244.12 10.52 243.20 10.89 242.27 11.22 C 237.73 11.85 232.52 11.67 229.01 15.04 C 225.42 15.08 222.00 16.28 218.86 17.96 C 179.79 32.70 143.08 53.81 111.90 81.72 C 109.75 82.59 108.15 84.25 107.12 86.30 C 100.19 91.95 94.00 98.37 88.22 105.16 C 86.19 106.85 84.04 108.48 82.87 110.94 C 55.28 142.12 33.98 178.70 19.75 217.80 C 17.33 221.47 17.13 226.00 16.11 230.16 C 15.73 231.08 15.35 231.99 14.96 232.90 C 13.15 236.41 12.56 240.31 12.14 244.20 C 11.77 245.09 11.39 245.99 10.99 246.88 C 9.44 249.75 8.89 253.00 9.17 256.24 C 8.42 259.12 7.79 262.04 6.98 264.92 C 4.94 270.77 4.49 276.99 3.90 283.11 C 2.26 285.30 1.96 287.55 3.01 289.86 C 1.65 296.82 0.95 303.90 0.98 311.00 L 0.96 311.98 L 0.00 312.04 L 0.00 0.00 Z" />
<path fill="#a3d7f2" d=" M 291.44 0.00 L 303.45 0.00 C 283.77 2.15 264.36 5.92 245.04 10.12 C 259.63 4.03 276.05 3.42 291.44 0.00 Z" />
<path fill="#4cb1e5" d=" M 303.45 0.00 L 357.56 0.00 C 366.05 1.41 374.63 2.39 383.24 2.80 C 385.09 3.23 386.91 3.78 388.77 4.19 C 392.49 5.31 396.31 5.72 400.19 5.88 C 402.74 6.55 405.25 7.37 407.76 8.18 C 411.70 9.61 415.86 10.29 420.00 10.95 C 422.11 12.40 424.58 13.04 427.14 12.97 C 429.98 14.18 432.95 15.02 435.87 16.02 C 438.74 17.59 441.88 18.62 445.14 18.97 C 486.58 34.67 524.95 58.27 557.21 88.69 C 558.77 90.81 560.33 92.94 561.97 95.02 C 545.53 82.58 530.65 67.94 513.07 56.88 C 462.97 24.07 404.04 4.21 344.00 2.99 C 279.13 -0.50 213.46 17.16 158.38 51.44 C 95.43 90.46 45.71 150.49 20.09 220.07 C 20.00 219.50 19.83 218.37 19.75 217.80 C 33.98 178.70 55.28 142.12 82.87 110.94 C 84.82 109.17 86.80 107.41 88.22 105.16 C 94.00 98.37 100.19 91.95 107.12 86.30 C 109.24 85.39 110.84 83.75 111.90 81.72 C 143.08 53.81 179.79 32.70 218.86 17.96 C 222.46 17.95 225.91 16.79 229.01 15.04 C 233.53 14.16 237.93 12.75 242.27 11.22 C 243.20 10.89 244.12 10.52 245.04 10.12 C 264.36 5.92 283.77 2.15 303.45 0.00 Z" />
<path fill="#9fd6f2" d=" M 357.56 0.00 L 370.57 0.00 C 374.80 0.90 379.04 1.75 383.24 2.80 C 374.63 2.39 366.05 1.41 357.56 0.00 Z" />
<path fill="#feffff" d=" M 370.57 0.00 L 660.00 0.00 L 660.00 296.45 C 659.36 291.20 658.50 285.98 657.16 280.86 C 656.86 279.42 656.25 276.52 655.95 275.08 C 655.50 269.57 655.24 263.92 653.24 258.71 C 652.85 257.50 652.41 256.32 651.96 255.14 C 652.07 251.93 651.44 248.76 650.08 245.85 C 649.34 243.95 648.68 242.03 647.93 240.14 C 647.72 236.87 647.53 233.29 645.22 230.73 C 645.13 230.35 644.96 229.59 644.87 229.20 C 644.66 225.91 643.61 222.75 642.06 219.85 C 641.35 218.28 640.66 216.71 639.95 215.15 C 639.68 212.18 638.87 209.24 637.02 206.86 C 636.06 204.55 635.21 202.20 634.22 199.91 C 619.69 163.38 596.83 130.58 570.24 101.81 C 566.53 96.89 562.52 91.95 557.21 88.69 C 524.95 58.27 486.58 34.67 445.14 18.97 C 442.47 16.94 439.19 16.02 435.87 16.02 C 432.95 15.02 429.98 14.18 427.14 12.97 C 424.95 11.71 422.52 11.03 420.00 10.95 C 416.19 9.00 412.00 8.12 407.76 8.18 C 405.25 7.37 402.74 6.55 400.19 5.88 C 396.49 4.62 392.64 4.26 388.77 4.19 C 386.91 3.78 385.09 3.23 383.24 2.80 C 379.04 1.75 374.80 0.90 370.57 0.00 Z" />
<path fill="#179ade" d=" M 158.38 51.44 C 213.46 17.16 279.13 -0.50 344.00 2.99 C 404.04 4.21 462.97 24.07 513.07 56.88 C 530.65 67.94 545.53 82.58 561.97 95.02 C 562.20 95.22 562.66 95.63 562.89 95.84 C 562.84 96.85 562.82 97.87 562.86 98.89 C 562.52 98.88 561.82 98.87 561.48 98.86 C 534.07 70.67 500.23 48.62 464.24 32.85 C 436.94 19.71 407.12 12.18 377.23 7.77 C 321.36 -0.75 262.93 6.91 211.01 29.20 C 210.95 36.15 216.80 41.01 218.32 47.53 C 232.69 84.25 229.38 127.37 209.35 161.30 C 198.15 179.28 183.22 195.02 165.14 206.20 C 144.50 218.51 120.60 224.28 96.87 226.77 C 78.77 224.15 59.50 223.00 43.12 213.86 C 37.84 212.83 33.73 207.80 28.34 208.17 C 20.32 227.41 13.07 246.95 8.60 267.34 C 8.57 268.50 7.72 269.31 7.05 270.18 C 7.03 268.42 6.98 266.67 6.98 264.92 C 7.79 262.04 8.42 259.12 9.17 256.24 C 10.35 253.25 11.05 250.10 10.99 246.88 C 11.39 245.99 11.77 245.09 12.14 244.20 C 13.78 240.62 14.38 236.74 14.96 232.90 C 15.35 231.99 15.73 231.08 16.11 230.16 C 17.50 226.82 18.71 223.41 20.09 220.07 C 45.71 150.49 95.43 90.46 158.38 51.44 Z" />
<path fill="#1197dd" d=" M 211.01 29.20 C 262.93 6.91 321.36 -0.75 377.23 7.77 C 355.19 6.91 333.06 4.49 310.96 6.69 C 308.44 8.29 300.49 4.86 300.07 9.03 C 331.12 80.28 320.47 168.07 272.15 229.09 C 267.09 240.88 252.05 235.08 242.36 233.45 C 241.42 236.86 238.23 237.92 235.01 237.28 C 236.01 238.54 237.07 239.74 238.14 240.96 C 236.39 240.98 234.65 241.06 232.90 241.08 C 229.64 240.40 226.38 239.76 223.15 238.98 C 217.39 237.82 211.65 235.86 205.71 236.28 C 203.85 235.87 202.01 235.38 200.18 234.90 C 194.54 233.14 188.65 232.45 182.78 232.18 C 181.23 231.81 179.71 231.33 178.17 230.91 C 172.55 229.10 166.64 228.52 160.79 228.07 L 160.02 227.89 C 158.70 226.36 156.58 226.61 154.90 227.29 C 152.98 226.79 151.07 226.24 149.15 225.75 C 147.61 225.55 144.53 225.16 142.99 224.96 C 133.10 220.53 128.34 232.90 121.78 237.78 C 119.88 238.94 122.10 239.94 122.95 240.92 C 134.53 256.80 151.05 268.34 164.27 282.84 C 162.79 284.46 160.73 285.16 158.67 285.73 C 133.42 292.97 107.42 298.28 80.98 295.95 C 56.49 291.80 31.12 286.97 9.22 275.11 C 5.29 282.68 9.98 293.35 3.10 299.24 C 3.09 296.09 2.95 292.99 3.01 289.86 C 4.77 287.67 5.07 285.41 3.90 283.11 C 5.05 278.82 5.64 274.39 7.05 270.18 C 7.72 269.31 8.57 268.50 8.60 267.34 C 13.07 246.95 20.32 227.41 28.34 208.17 C 33.73 207.80 37.84 212.83 43.12 213.86 C 59.50 223.00 78.77 224.15 96.87 226.77 C 120.60 224.28 144.50 218.51 165.14 206.20 C 183.22 195.02 198.15 179.28 209.35 161.30 C 229.38 127.37 232.69 84.25 218.32 47.53 C 216.80 41.01 210.95 36.15 211.01 29.20 Z" />
<path fill="#a4d8f3" d=" M 388.77 4.19 C 392.64 4.26 396.49 4.62 400.19 5.88 C 396.31 5.72 392.49 5.31 388.77 4.19 Z" />
<path fill="#0d95dc" d=" M 310.96 6.69 C 333.06 4.49 355.19 6.91 377.23 7.77 C 407.12 12.18 436.94 19.71 464.24 32.85 C 444.25 27.20 425.09 18.03 404.39 14.57 C 399.65 14.68 393.41 9.82 389.10 13.15 C 411.85 91.66 400.72 179.88 357.60 249.62 C 352.74 254.49 344.57 250.51 338.50 250.56 C 325.27 245.73 346.00 258.05 332.13 254.17 C 326.71 256.90 337.87 257.82 339.84 254.65 C 337.94 255.95 338.75 257.60 339.91 259.09 C 334.54 258.35 329.19 257.44 323.78 257.20 C 321.92 256.79 320.11 256.25 318.28 255.78 C 312.70 253.88 306.76 253.47 300.95 252.96 C 299.76 251.45 297.75 251.59 296.08 251.99 C 290.20 250.01 284.00 249.35 277.84 249.10 C 274.57 248.42 271.30 247.80 268.09 246.89 C 266.57 246.67 263.52 246.23 261.99 246.02 C 260.49 245.74 257.48 245.20 255.98 244.93 C 254.72 243.34 252.57 243.64 250.90 244.28 C 249.31 243.84 247.74 243.36 246.14 242.97 C 243.46 242.27 240.80 241.67 238.14 240.96 C 237.07 239.74 236.01 238.54 235.01 237.28 C 238.23 237.92 241.42 236.86 242.36 233.45 C 252.05 235.08 267.09 240.88 272.15 229.09 C 320.47 168.07 331.12 80.28 300.07 9.03 C 300.49 4.86 308.44 8.29 310.96 6.69 Z" />
<path fill="#a6d8f3" d=" M 407.76 8.18 C 412.00 8.12 416.19 9.00 420.00 10.95 C 415.86 10.29 411.70 9.61 407.76 8.18 Z" />
<path fill="#9dd5f2" d=" M 229.01 15.04 C 232.52 11.67 237.73 11.85 242.27 11.22 C 237.93 12.75 233.53 14.16 229.01 15.04 Z" />
<path fill="#a5d8f3" d=" M 420.00 10.95 C 422.52 11.03 424.95 11.71 427.14 12.97 C 424.58 13.04 422.11 12.40 420.00 10.95 Z" />
<path fill="#0994dc" d=" M 389.10 13.15 C 393.41 9.82 399.65 14.68 404.39 14.57 C 425.09 18.03 444.25 27.20 464.24 32.85 C 500.23 48.62 534.07 70.67 561.48 98.86 C 539.80 120.70 518.19 142.62 496.13 164.06 C 494.37 165.37 492.67 166.76 490.96 168.14 C 489.41 166.96 487.87 165.76 486.16 164.83 C 481.77 163.80 477.03 163.32 472.68 164.70 C 451.83 169.38 433.65 181.72 419.23 197.23 C 398.29 218.29 377.21 239.20 356.29 260.27 C 353.85 263.47 349.41 260.75 346.09 260.81 C 344.73 259.43 342.72 259.58 341.04 260.17 C 340.76 259.90 340.19 259.36 339.91 259.09 C 338.75 257.60 337.94 255.95 339.84 254.65 C 337.87 257.82 326.71 256.90 332.13 254.17 C 346.00 258.05 325.27 245.73 338.50 250.56 C 344.57 250.51 352.74 254.49 357.60 249.62 C 400.72 179.88 411.85 91.66 389.10 13.15 Z" />
<path fill="#a1d6f2" d=" M 218.86 17.96 C 222.00 16.28 225.42 15.08 229.01 15.04 C 225.91 16.79 222.46 17.95 218.86 17.96 Z" />
<path fill="#afdcf4" d=" M 435.87 16.02 C 439.19 16.02 442.47 16.94 445.14 18.97 C 441.88 18.62 438.74 17.59 435.87 16.02 Z" />
<path fill="#a2d7f2" d=" M 107.12 86.30 C 108.15 84.25 109.75 82.59 111.90 81.72 C 110.84 83.75 109.24 85.39 107.12 86.30 Z" />
<path fill="#a1dbf6" d=" M 557.21 88.69 C 562.52 91.95 566.53 96.89 570.24 101.81 C 567.76 99.84 565.33 97.83 562.89 95.84 C 562.66 95.63 562.20 95.22 561.97 95.02 C 560.33 92.94 558.77 90.81 557.21 88.69 Z" />
<path fill="#4bc1f7" d=" M 562.89 95.84 C 565.33 97.83 567.76 99.84 570.24 101.81 C 596.83 130.58 619.69 163.38 634.22 199.91 C 629.83 196.00 628.90 189.88 625.92 185.05 C 609.62 153.32 588.94 123.34 562.86 98.89 C 562.82 97.87 562.84 96.85 562.89 95.84 Z" />
<path fill="#06aaf4" d=" M 561.48 98.86 C 561.82 98.87 562.52 98.88 562.86 98.89 C 588.94 123.34 609.62 153.32 625.92 185.05 C 628.90 189.88 629.83 196.00 634.22 199.91 C 635.21 202.20 636.06 204.55 637.02 206.86 C 637.32 209.82 638.15 212.74 639.95 215.15 C 640.66 216.71 641.35 218.28 642.06 219.85 C 641.96 223.20 643.03 226.43 644.87 229.20 C 644.96 229.59 645.13 230.35 645.22 230.73 C 645.63 233.99 646.37 237.22 647.93 240.14 C 648.68 242.03 649.34 243.95 650.08 245.85 C 649.90 249.07 650.54 252.25 651.96 255.14 C 652.41 256.32 652.85 257.50 653.24 258.71 C 652.82 264.29 654.25 269.81 655.95 275.08 C 656.25 276.52 656.86 279.42 657.16 280.86 C 657.20 289.46 657.79 298.24 660.00 306.57 L 660.00 342.60 C 658.09 330.88 646.86 324.81 640.13 315.85 C 623.42 298.53 607.28 280.46 588.79 265.09 C 566.34 244.24 546.93 220.17 523.78 200.16 C 523.25 199.86 522.21 199.24 521.68 198.93 C 511.31 189.92 506.51 175.62 494.27 168.83 C 494.77 167.20 495.47 165.64 496.13 164.06 C 518.19 142.62 539.80 120.70 561.48 98.86 Z" />
<path fill="#a4d8f2" d=" M 82.87 110.94 C 84.04 108.48 86.19 106.85 88.22 105.16 C 86.80 107.41 84.82 109.17 82.87 110.94 Z" />
<path fill="#9cd0eb" d=" M 472.68 164.70 C 477.03 163.32 481.77 163.80 486.16 164.83 C 481.65 164.81 477.17 164.79 472.68 164.70 Z" />
<path fill="#0b9ddf" d=" M 490.96 168.14 C 492.67 166.76 494.37 165.37 496.13 164.06 C 495.47 165.64 494.77 167.20 494.27 168.83 C 506.51 175.62 511.31 189.92 521.68 198.93 C 524.05 206.95 534.15 211.76 537.04 220.00 C 536.57 223.15 533.14 224.93 531.29 227.29 C 504.01 254.34 476.98 281.66 449.73 308.72 C 440.46 311.80 435.23 321.70 427.72 327.70 C 423.65 331.79 424.21 338.23 425.45 343.42 C 425.72 397.03 435.57 449.83 442.24 502.89 C 444.31 514.36 448.24 527.96 439.98 537.97 C 435.83 545.10 426.84 541.26 420.21 542.88 C 406.56 520.36 394.75 496.62 380.80 474.22 C 372.38 458.50 363.16 443.13 351.16 429.90 C 348.80 427.39 347.85 421.36 343.31 423.26 C 325.65 440.60 308.58 458.60 290.12 475.09 C 281.28 479.91 274.80 487.73 267.79 494.76 C 265.90 507.83 264.71 523.57 253.92 532.94 C 245.95 540.37 236.42 530.12 230.31 525.06 C 236.49 525.35 242.64 523.18 247.66 519.72 C 257.44 503.75 245.18 485.40 248.39 468.41 C 252.37 455.13 265.83 448.35 274.85 438.87 C 291.07 424.78 307.11 410.47 323.15 396.18 C 326.72 393.42 330.88 389.32 335.69 390.25 C 342.82 394.18 344.00 403.89 350.15 408.99 C 373.44 451.47 396.55 494.14 418.85 537.17 C 419.43 538.49 420.16 539.77 421.09 540.90 C 428.19 536.96 439.33 533.34 438.55 523.21 C 436.07 497.04 429.98 471.26 427.43 445.10 C 425.63 422.46 420.12 400.33 417.74 377.78 C 417.13 361.15 412.82 344.84 412.73 328.13 C 411.01 319.76 414.21 311.11 419.94 304.99 C 441.67 283.39 463.63 261.97 484.67 239.70 C 496.56 225.96 505.76 209.10 508.82 191.08 C 506.82 184.63 502.23 177.87 496.08 174.95 L 495.26 174.64 C 494.21 172.24 492.72 170.07 490.96 168.14 Z" />
<path fill="#edeeee" d=" M 419.23 197.23 C 433.65 181.72 451.83 169.38 472.68 164.70 C 477.17 164.79 481.65 164.81 486.16 164.83 C 487.87 165.76 489.41 166.96 490.96 168.14 C 492.72 170.07 494.21 172.24 495.26 174.64 C 495.17 177.83 495.17 181.06 495.18 184.26 C 491.17 208.51 475.72 228.80 457.75 244.75 C 437.49 264.83 417.57 285.27 397.11 305.14 C 374.47 327.73 352.46 351.08 328.93 372.72 C 298.80 400.36 267.78 427.04 237.21 454.18 C 234.50 456.52 236.77 460.07 236.95 463.01 C 239.90 478.29 243.42 493.54 245.99 508.85 C 241.22 513.47 236.00 517.72 232.05 523.11 C 231.55 523.40 230.56 523.98 230.06 524.27 L 229.76 523.36 C 222.16 503.99 211.43 485.94 202.54 467.12 C 200.71 464.18 199.94 459.84 196.06 458.91 C 176.86 449.92 158.36 439.44 138.96 430.93 C 137.86 429.99 136.71 429.09 135.77 427.99 C 140.28 423.07 144.91 418.19 150.03 413.89 C 154.38 414.65 158.65 415.97 163.09 416.14 C 164.28 417.67 166.34 417.30 167.99 416.97 C 169.20 418.52 171.27 418.41 173.00 417.99 C 174.21 419.55 176.30 419.43 178.00 418.91 C 178.73 420.55 180.74 420.35 182.11 419.76 C 183.98 420.24 185.84 420.77 187.72 421.25 C 191.05 422.35 194.52 422.77 198.00 423.19 C 201.19 424.08 205.18 425.12 206.40 421.30 C 221.38 403.84 236.95 386.86 251.99 369.44 C 263.07 357.37 273.73 344.91 284.78 332.81 C 285.79 331.50 287.73 330.21 286.81 328.33 C 232.01 299.55 177.89 269.39 122.95 240.92 C 122.10 239.94 119.88 238.94 121.78 237.78 C 128.34 232.90 133.10 220.53 142.99 224.96 C 144.53 225.16 147.61 225.55 149.15 225.75 C 151.07 226.24 152.98 226.79 154.90 227.29 C 156.36 228.48 158.31 228.38 160.02 227.89 L 160.79 228.07 C 166.42 229.83 172.31 230.50 178.17 230.91 C 179.71 231.33 181.23 231.81 182.78 232.18 C 188.44 233.82 194.31 234.50 200.18 234.90 C 202.01 235.38 203.85 235.87 205.71 236.28 C 211.35 238.05 217.28 238.58 223.15 238.98 C 226.38 239.76 229.64 240.40 232.90 241.08 C 237.22 242.34 241.68 242.65 246.14 242.97 C 247.74 243.36 249.31 243.84 250.90 244.28 C 252.34 245.46 254.27 245.42 255.98 244.93 C 257.48 245.20 260.49 245.74 261.99 246.02 C 263.52 246.23 266.57 246.67 268.09 246.89 C 271.30 247.80 274.57 248.42 277.84 249.10 C 283.84 250.49 289.93 251.49 296.08 251.99 C 297.21 253.59 299.27 253.41 300.95 252.96 C 306.65 254.19 312.37 256.08 318.28 255.78 C 320.11 256.25 321.92 256.79 323.78 257.20 C 329.43 258.71 335.24 259.46 341.04 260.17 C 342.38 261.58 344.41 261.37 346.09 260.81 C 349.41 260.75 353.85 263.47 356.29 260.27 C 377.21 239.20 398.29 218.29 419.23 197.23 Z" />
<path fill="#93c7df" d=" M 495.26 174.64 L 496.08 174.95 C 496.12 176.64 496.22 180.01 496.27 181.69 C 496.00 182.33 495.45 183.62 495.18 184.26 C 495.17 181.06 495.17 177.83 495.26 174.64 Z" />
<path fill="#1095d1" d=" M 496.08 174.95 C 502.23 177.87 506.82 184.63 508.82 191.08 C 505.76 209.10 496.56 225.96 484.67 239.70 C 463.63 261.97 441.67 283.39 419.94 304.99 C 414.21 311.11 411.01 319.76 412.73 328.13 C 412.82 344.84 417.13 361.15 417.74 377.78 C 420.12 400.33 425.63 422.46 427.43 445.10 C 429.98 471.26 436.07 497.04 438.55 523.21 C 439.33 533.34 428.19 536.96 421.09 540.90 C 420.16 539.77 419.43 538.49 418.85 537.17 C 425.73 537.07 435.35 526.35 434.90 519.06 C 424.21 458.11 413.54 397.14 402.71 336.22 C 403.98 323.17 404.00 308.71 413.28 298.29 C 433.18 278.18 453.30 258.30 473.25 238.24 C 485.05 225.53 494.43 210.03 497.93 192.90 C 497.48 189.33 499.28 184.54 496.27 181.69 C 496.22 180.01 496.12 176.64 496.08 174.95 Z" />
<path fill="#198dc2" d=" M 496.27 181.69 C 499.28 184.54 497.48 189.33 497.93 192.90 C 494.43 210.03 485.05 225.53 473.25 238.24 C 453.30 258.30 433.18 278.18 413.28 298.29 C 404.00 308.71 403.98 323.17 402.71 336.22 C 402.17 333.42 401.67 330.70 401.16 327.93 C 400.90 324.15 399.89 320.49 399.00 316.83 C 398.72 312.88 397.87 309.01 397.11 305.14 C 417.57 285.27 437.49 264.83 457.75 244.75 C 475.72 228.80 491.17 208.51 495.18 184.26 C 495.45 183.62 496.00 182.33 496.27 181.69 Z" />
<path fill="#08a2e7" d=" M 521.68 198.93 C 522.21 199.24 523.25 199.86 523.78 200.16 C 542.62 220.62 562.17 240.55 580.37 261.65 C 581.54 263.02 582.69 264.84 581.75 266.68 C 557.91 290.85 533.59 314.56 509.87 338.83 C 502.40 351.48 494.19 363.71 485.68 375.69 C 472.21 391.87 454.43 403.90 441.00 420.05 C 443.97 426.00 442.16 432.00 440.12 438.00 C 441.43 451.81 442.64 464.85 444.49 478.64 C 448.22 488.33 445.20 498.96 448.25 508.85 C 451.16 520.67 451.81 535.85 441.23 544.19 C 433.56 551.94 419.24 548.85 415.04 538.99 C 407.36 526.45 399.53 513.97 391.17 501.88 C 388.71 493.65 381.91 490.00 374.89 486.21 C 368.45 489.26 362.21 493.07 357.21 498.21 C 337.31 518.31 317.19 538.19 297.28 558.28 C 293.01 564.49 284.56 561.66 279.78 567.64 C 269.72 560.34 260.87 550.70 250.75 543.10 C 243.78 537.71 237.06 531.90 229.34 527.62 C 225.48 521.48 220.62 516.03 216.90 509.81 C 222.93 510.14 224.99 520.16 229.76 523.36 L 230.06 524.27 L 230.31 525.06 C 236.42 530.12 245.95 540.37 253.92 532.94 C 264.71 523.57 265.90 507.83 267.79 494.76 C 274.80 487.73 281.28 479.91 290.12 475.09 C 308.58 458.60 325.65 440.60 343.31 423.26 C 347.85 421.36 348.80 427.39 351.16 429.90 C 363.16 443.13 372.38 458.50 380.80 474.22 C 394.75 496.62 406.56 520.36 420.21 542.88 C 426.84 541.26 435.83 545.10 439.98 537.97 C 448.24 527.96 444.31 514.36 442.24 502.89 C 435.57 449.83 425.72 397.03 425.45 343.42 C 424.21 338.23 423.65 331.79 427.72 327.70 C 435.23 321.70 440.46 311.80 449.73 308.72 C 476.98 281.66 504.01 254.34 531.29 227.29 C 533.14 224.93 536.57 223.15 537.04 220.00 C 534.15 211.76 524.05 206.95 521.68 198.93 Z" />
<path fill="#06a5ed" d=" M 523.78 200.16 C 546.93 220.17 566.34 244.24 588.79 265.09 C 599.29 278.50 611.20 290.76 622.67 303.33 C 625.83 305.58 628.31 309.42 624.71 312.72 C 583.00 354.35 541.71 396.49 499.23 437.25 C 497.95 439.21 494.94 437.76 494.12 440.18 C 482.08 454.02 468.91 466.94 456.01 479.97 C 452.63 482.71 454.08 487.03 454.27 490.69 C 456.88 503.36 454.09 516.27 456.06 529.02 C 453.48 541.84 442.86 554.87 428.96 555.03 C 422.53 555.14 418.38 548.55 412.00 548.51 C 405.41 548.62 406.56 536.41 400.33 537.28 C 377.27 558.90 355.69 582.03 332.91 603.94 C 330.09 606.92 325.88 613.67 321.01 609.96 C 296.89 588.56 271.84 567.51 250.75 543.10 C 260.87 550.70 269.72 560.34 279.78 567.64 C 284.56 561.66 293.01 564.49 297.28 558.28 C 317.19 538.19 337.31 518.31 357.21 498.21 C 362.21 493.07 368.45 489.26 374.89 486.21 C 381.91 490.00 388.71 493.65 391.17 501.88 C 399.53 513.97 407.36 526.45 415.04 538.99 C 419.24 548.85 433.56 551.94 441.23 544.19 C 451.81 535.85 451.16 520.67 448.25 508.85 C 445.20 498.96 448.22 488.33 444.49 478.64 C 442.64 464.85 441.43 451.81 440.12 438.00 C 442.16 432.00 443.97 426.00 441.00 420.05 C 454.43 403.90 472.21 391.87 485.68 375.69 C 494.19 363.71 502.40 351.48 509.87 338.83 C 533.59 314.56 557.91 290.85 581.75 266.68 C 582.69 264.84 581.54 263.02 580.37 261.65 C 562.17 240.55 542.62 220.62 523.78 200.16 Z" />
<path fill="#6bccf9" d=" M 637.02 206.86 C 638.87 209.24 639.68 212.18 639.95 215.15 C 638.15 212.74 637.32 209.82 637.02 206.86 Z" />
<path fill="#8ccdf0" d=" M 16.11 230.16 C 17.13 226.00 17.33 221.47 19.75 217.80 C 19.83 218.37 20.00 219.50 20.09 220.07 C 18.71 223.41 17.50 226.82 16.11 230.16 Z" />
<path fill="#70cff9" d=" M 642.06 219.85 C 643.61 222.75 644.66 225.91 644.87 229.20 C 643.03 226.43 641.96 223.20 642.06 219.85 Z" />
<path fill="#8ac8e8" d=" M 142.99 224.96 C 144.53 225.16 147.61 225.55 149.15 225.75 C 147.61 225.55 144.53 225.16 142.99 224.96 Z" />
<path fill="#81c4e7" d=" M 154.90 227.29 C 156.58 226.61 158.70 226.36 160.02 227.89 C 158.31 228.38 156.36 228.48 154.90 227.29 Z" />
<path fill="#77bfe5" d=" M 160.79 228.07 C 166.64 228.52 172.55 229.10 178.17 230.91 C 172.31 230.50 166.42 229.83 160.79 228.07 Z" />
<path fill="#67cbf8" d=" M 645.22 230.73 C 647.53 233.29 647.72 236.87 647.93 240.14 C 646.37 237.22 645.63 233.99 645.22 230.73 Z" />
<path fill="#7dc2e6" d=" M 182.78 232.18 C 188.65 232.45 194.54 233.14 200.18 234.90 C 194.31 234.50 188.44 233.82 182.78 232.18 Z" />
<path fill="#85caef" d=" M 12.14 244.20 C 12.56 240.31 13.15 236.41 14.96 232.90 C 14.38 236.74 13.78 240.62 12.14 244.20 Z" />
<path fill="#83c5e6" d=" M 205.71 236.28 C 211.65 235.86 217.39 237.82 223.15 238.98 C 217.28 238.58 211.35 238.05 205.71 236.28 Z" />
<path fill="#1783ba" d=" M 122.95 240.92 C 177.89 269.39 232.01 299.55 286.81 328.33 C 287.73 330.21 285.79 331.50 284.78 332.81 C 273.73 344.91 263.07 357.37 251.99 369.44 C 231.65 350.33 212.04 330.37 192.05 310.84 C 183.06 301.25 173.56 292.14 164.27 282.84 C 151.05 268.34 134.53 256.80 122.95 240.92 Z" />
<path fill="#7bc1e5" d=" M 232.90 241.08 C 234.65 241.06 236.39 240.98 238.14 240.96 C 240.80 241.67 243.46 242.27 246.14 242.97 C 241.68 242.65 237.22 242.34 232.90 241.08 Z" />
<path fill="#80c4e6" d=" M 250.90 244.28 C 252.57 243.64 254.72 243.34 255.98 244.93 C 254.27 245.42 252.34 245.46 250.90 244.28 Z" />
<path fill="#7ec2e6" d=" M 255.98 244.93 C 257.48 245.20 260.49 245.74 261.99 246.02 C 260.49 245.74 257.48 245.20 255.98 244.93 Z" />
<path fill="#7ac0e5" d=" M 261.99 246.02 C 263.52 246.23 266.57 246.67 268.09 246.89 C 266.57 246.67 263.52 246.23 261.99 246.02 Z" />
<path fill="#78d1f9" d=" M 650.08 245.85 C 651.44 248.76 652.07 251.93 651.96 255.14 C 650.54 252.25 649.90 249.07 650.08 245.85 Z" />
<path fill="#8ecef0" d=" M 9.17 256.24 C 8.89 253.00 9.44 249.75 10.99 246.88 C 11.05 250.10 10.35 253.25 9.17 256.24 Z" />
<path fill="#7bc1e5" d=" M 277.84 249.10 C 284.00 249.35 290.20 250.01 296.08 251.99 C 289.93 251.49 283.84 250.49 277.84 249.10 Z" />
<path fill="#80c3e6" d=" M 296.08 251.99 C 297.75 251.59 299.76 251.45 300.95 252.96 C 299.27 253.41 297.21 253.59 296.08 251.99 Z" />
<path fill="#75bee4" d=" M 300.95 252.96 C 306.76 253.47 312.70 253.88 318.28 255.78 C 312.37 256.08 306.65 254.19 300.95 252.96 Z" />
<path fill="#79c0e5" d=" M 323.78 257.20 C 329.19 257.44 334.54 258.35 339.91 259.09 C 340.19 259.36 340.76 259.90 341.04 260.17 C 335.24 259.46 329.43 258.71 323.78 257.20 Z" />
<path fill="#7dd3fa" d=" M 653.24 258.71 C 655.24 263.92 655.50 269.57 655.95 275.08 C 654.25 269.81 652.82 264.29 653.24 258.71 Z" />
<path fill="#81c3e5" d=" M 341.04 260.17 C 342.72 259.58 344.73 259.43 346.09 260.81 C 344.41 261.37 342.38 261.58 341.04 260.17 Z" />
<path fill="#8bcdf0" d=" M 3.90 283.11 C 4.49 276.99 4.94 270.77 6.98 264.92 C 6.98 266.67 7.03 268.42 7.05 270.18 C 5.64 274.39 5.05 278.82 3.90 283.11 Z" />
<path fill="#05a6f0" d=" M 588.79 265.09 C 607.28 280.46 623.42 298.53 640.13 315.85 C 646.86 324.81 658.09 330.88 660.00 342.60 L 660.00 352.57 C 658.52 361.06 657.29 369.65 657.27 378.29 C 656.79 380.82 656.20 383.34 655.77 385.88 C 654.62 386.93 654.55 388.52 654.95 389.93 C 653.73 393.20 652.89 396.62 653.10 400.12 C 651.35 400.72 651.62 402.80 652.27 404.13 C 651.82 405.68 651.35 407.23 650.87 408.77 C 649.47 411.35 648.86 414.21 649.07 417.14 C 646.94 423.40 644.91 429.70 642.81 435.98 C 641.01 437.47 640.40 439.73 641.17 441.95 C 640.38 443.62 639.66 445.32 638.90 447.00 C 637.32 448.18 636.51 450.05 637.08 451.99 C 626.60 478.47 612.40 503.37 595.45 526.24 C 594.41 525.44 593.34 525.12 592.24 525.29 C 555.88 574.06 504.90 611.45 448.21 633.26 C 357.95 667.96 251.95 661.48 168.40 612.07 C 170.97 610.43 173.60 613.24 176.02 613.96 C 231.31 643.67 295.88 657.27 358.13 650.92 C 319.91 614.34 282.11 576.10 243.05 539.95 C 238.48 536.28 231.70 536.86 227.73 532.25 C 221.79 525.58 219.53 516.34 212.81 510.19 C 202.45 499.84 193.84 486.73 181.85 478.49 L 182.26 477.79 C 196.19 484.68 206.33 498.36 216.90 509.81 C 220.62 516.03 225.48 521.48 229.34 527.62 C 237.06 531.90 243.78 537.71 250.75 543.10 C 271.84 567.51 296.89 588.56 321.01 609.96 C 325.88 613.67 330.09 606.92 332.91 603.94 C 355.69 582.03 377.27 558.90 400.33 537.28 C 406.56 536.41 405.41 548.62 412.00 548.51 C 418.38 548.55 422.53 555.14 428.96 555.03 C 442.86 554.87 453.48 541.84 456.06 529.02 C 454.09 516.27 456.88 503.36 454.27 490.69 C 454.08 487.03 452.63 482.71 456.01 479.97 C 468.91 466.94 482.08 454.02 494.12 440.18 C 494.94 437.76 497.95 439.21 499.23 437.25 C 541.71 396.49 583.00 354.35 624.71 312.72 C 628.31 309.42 625.83 305.58 622.67 303.33 C 611.20 290.76 599.29 278.50 588.79 265.09 Z" />
<path fill="#0e96dd" d=" M 9.22 275.11 C 31.12 286.97 56.49 291.80 80.98 295.95 C 107.42 298.28 133.42 292.97 158.67 285.73 C 160.73 285.16 162.79 284.46 164.27 282.84 C 173.56 292.14 183.06 301.25 192.05 310.84 C 195.99 319.39 205.88 323.48 209.88 331.92 C 197.02 338.10 180.93 343.99 166.02 348.00 C 115.05 362.20 59.30 360.94 9.59 342.48 C 7.07 342.22 4.55 342.03 2.03 341.91 C 1.92 331.60 2.11 321.30 1.95 310.99 C 1.91 307.05 1.62 302.98 3.10 299.24 C 9.98 293.35 5.29 282.68 9.22 275.11 Z" />
<path fill="#80d4fa" d=" M 655.95 275.08 C 656.25 276.52 656.86 279.42 657.16 280.86 C 656.86 279.42 656.25 276.52 655.95 275.08 Z" />
<path fill="#84d6fa" d=" M 657.16 280.86 C 658.50 285.98 659.36 291.20 660.00 296.45 L 660.00 306.57 C 657.79 298.24 657.20 289.46 657.16 280.86 Z" />
<path fill="#95d1f1" d=" M 3.01 289.86 C 1.96 287.55 2.26 285.30 3.90 283.11 C 5.07 285.41 4.77 287.67 3.01 289.86 Z" />
<path fill="#94d1f0" d=" M 0.98 311.00 C 0.95 303.90 1.65 296.82 3.01 289.86 C 2.95 292.99 3.09 296.09 3.10 299.24 C 1.62 302.98 1.91 307.05 1.95 310.99 L 0.98 311.00 Z" />
<path fill="#babdbe" d=" M 328.93 372.72 C 352.46 351.08 374.47 327.73 397.11 305.14 C 397.87 309.01 398.72 312.88 399.00 316.83 C 378.61 338.97 356.22 359.40 335.59 381.18 C 333.49 378.28 333.46 372.56 328.93 372.72 Z" />
<path fill="#48acdf" d=" M 0.98 311.00 L 1.95 310.99 C 2.11 321.30 1.92 331.60 2.03 341.91 C 1.99 344.92 1.96 347.99 1.95 351.03 L 0.99 350.99 C 0.98 349.65 0.97 348.32 0.97 347.00 C 1.02 335.32 1.05 323.65 0.96 311.98 L 0.98 311.00 Z" />
<path fill="#0a94db" d=" M 192.05 310.84 C 212.04 330.37 231.65 350.33 251.99 369.44 C 236.95 386.86 221.38 403.84 206.40 421.30 C 203.79 422.61 200.87 422.91 198.00 423.19 C 194.76 421.62 191.29 420.78 187.72 421.25 C 185.84 420.77 183.98 420.24 182.11 419.76 C 181.02 418.65 179.43 418.55 178.00 418.91 C 176.70 417.50 174.71 417.59 173.00 417.99 C 171.75 416.49 169.71 416.59 167.99 416.97 C 166.88 415.91 165.34 415.66 163.88 415.68 C 159.42 415.50 154.17 411.49 150.03 413.89 C 144.91 418.19 140.28 423.07 135.77 427.99 C 136.71 429.09 137.86 429.99 138.96 430.93 C 151.27 448.12 169.85 459.80 183.23 476.06 C 182.99 476.49 182.50 477.36 182.26 477.79 L 181.85 478.49 C 154.97 505.96 127.32 532.68 100.53 560.24 C 94.88 560.44 92.31 554.62 87.83 552.21 L 87.26 551.81 C 86.36 549.71 84.72 548.13 82.69 547.13 C 81.42 545.77 80.23 544.35 79.06 542.91 C 79.18 540.93 77.73 539.45 75.84 539.15 C 51.33 508.92 31.76 474.71 18.79 437.98 C 19.60 435.76 19.00 433.49 17.21 431.97 C 16.43 429.72 15.62 427.48 14.83 425.25 C 15.05 422.62 14.39 420.10 13.05 417.86 C 12.31 415.96 11.65 414.04 10.92 412.15 C 11.11 408.93 10.43 405.79 9.07 402.89 C 9.43 401.47 9.34 399.87 8.15 398.87 L 7.84 398.13 C 8.39 396.75 8.55 394.79 6.93 394.08 C 6.90 389.92 6.16 385.86 5.11 381.86 C 5.36 380.15 5.43 378.28 4.23 376.90 C 4.13 376.46 3.94 375.60 3.85 375.17 C 3.59 373.66 3.09 370.65 2.83 369.15 C 3.34 363.07 2.43 357.06 1.95 351.03 C 1.96 347.99 1.99 344.92 2.03 341.91 C 4.55 342.03 7.07 342.22 9.59 342.48 C 59.30 360.94 115.05 362.20 166.02 348.00 C 180.93 343.99 197.02 338.10 209.88 331.92 C 205.88 323.48 195.99 319.39 192.05 310.84 Z" />
<path fill="#a7d5ec" d=" M 0.00 312.04 L 0.96 311.98 C 1.05 323.65 1.02 335.32 0.97 347.00 L 0.00 347.01 L 0.00 312.04 Z" />
<path fill="#c5c6c7" d=" M 335.59 381.18 C 356.22 359.40 378.61 338.97 399.00 316.83 C 399.89 320.49 400.90 324.15 401.16 327.93 C 398.16 325.36 397.45 330.08 395.62 331.68 C 375.91 349.33 358.93 370.03 338.69 386.96 C 337.54 385.09 336.51 383.16 335.59 381.18 Z" />
<path fill="#d1d2d2" d=" M 395.62 331.68 C 397.45 330.08 398.16 325.36 401.16 327.93 C 401.67 330.70 402.17 333.42 402.71 336.22 C 413.54 397.14 424.21 458.11 434.90 519.06 C 435.35 526.35 425.73 537.07 418.85 537.17 C 396.55 494.14 373.44 451.47 350.15 408.99 C 346.92 401.35 342.62 394.24 338.69 386.96 C 358.93 370.03 375.91 349.33 395.62 331.68 Z" />
<path fill="#feffff" d=" M 0.00 347.01 L 0.97 347.00 C 0.97 348.32 0.98 349.65 0.99 350.99 C 1.03 357.05 1.07 363.29 2.83 369.15 C 3.09 370.65 3.59 373.66 3.85 375.17 C 3.94 375.60 4.13 376.46 4.23 376.90 C 3.62 378.55 3.27 380.83 5.11 381.86 C 4.87 386.04 5.40 390.16 6.93 394.08 C 6.56 395.49 6.66 397.10 7.84 398.13 L 8.15 398.87 C 7.61 400.22 7.43 402.21 9.07 402.89 C 8.89 406.09 9.58 409.24 10.92 412.15 C 11.65 414.04 12.31 415.96 13.05 417.86 C 13.05 420.43 13.70 422.93 14.83 425.25 C 15.62 427.48 16.43 429.72 17.21 431.97 C 16.62 434.15 17.53 436.24 18.79 437.98 C 31.76 474.71 51.33 508.92 75.84 539.15 C 75.89 541.06 77.27 542.46 79.06 542.91 C 80.23 544.35 81.42 545.77 82.69 547.13 C 83.61 549.21 85.19 550.85 87.26 551.81 L 87.83 552.21 C 93.95 560.98 102.60 567.43 110.20 574.81 C 110.44 576.68 111.88 578.08 113.79 578.20 C 114.88 579.12 116.00 580.01 117.11 580.91 C 117.51 582.72 118.93 584.11 120.85 584.15 C 133.83 594.81 147.66 604.36 161.97 613.14 C 162.86 615.12 164.94 615.99 167.02 615.90 C 167.51 616.20 168.49 616.80 168.98 617.11 C 169.84 619.11 171.91 619.96 173.99 619.94 C 182.69 624.81 192.00 628.46 200.85 633.04 C 203.25 634.86 206.18 635.67 209.14 635.98 C 214.30 638.15 219.58 640.01 224.78 642.09 C 228.02 643.69 231.48 644.92 235.12 644.99 C 238.34 646.07 241.59 647.05 244.80 648.16 C 251.92 650.75 259.36 652.51 266.94 653.02 C 276.97 657.19 288.30 655.71 298.57 659.00 L 0.00 659.00 L 0.00 347.01 Z" />
<path fill="#94cae4" d=" M 0.99 350.99 L 1.95 351.03 C 2.43 357.06 3.34 363.07 2.83 369.15 C 1.07 363.29 1.03 357.05 0.99 350.99 Z" />
<path fill="#75c3e5" d=" M 657.27 378.29 C 657.29 369.65 658.52 361.06 660.00 352.57 L 660.00 361.55 C 659.14 367.13 658.50 372.76 657.27 378.29 Z" />
<path fill="#feffff" d=" M 657.27 378.29 C 658.50 372.76 659.14 367.13 660.00 361.55 L 660.00 659.00 L 362.56 659.00 C 372.87 656.21 384.28 657.56 394.05 653.00 C 399.16 652.52 404.42 652.08 409.23 650.14 C 410.42 649.72 411.59 649.25 412.79 648.84 C 416.63 648.33 420.68 648.07 424.10 646.02 C 424.55 645.77 425.46 645.27 425.92 645.02 C 428.47 644.98 430.92 644.31 433.15 643.06 C 435.04 642.32 436.97 641.69 438.87 640.97 C 442.83 640.41 446.83 639.37 450.12 637.00 C 452.04 637.43 453.91 636.64 455.00 635.00 C 456.92 635.47 458.80 634.69 459.90 633.07 C 462.57 632.81 465.01 631.63 467.14 630.04 C 467.58 629.78 468.47 629.25 468.92 628.99 C 475.39 627.07 481.93 624.46 487.20 620.13 C 487.65 619.82 488.54 619.18 488.98 618.87 C 491.07 619.01 493.16 618.12 494.01 616.11 C 512.18 605.81 529.02 593.36 545.22 580.22 C 547.11 580.07 548.52 578.68 548.82 576.83 C 551.27 574.64 553.75 572.50 556.12 570.23 C 561.99 566.14 567.09 560.97 571.29 555.19 C 579.76 545.90 588.14 536.48 595.45 526.24 C 612.40 503.37 626.60 478.47 637.08 451.99 C 638.68 450.83 639.48 448.94 638.90 447.00 C 639.66 445.32 640.38 443.62 641.17 441.95 C 642.48 440.24 643.37 438.15 642.81 435.98 C 644.91 429.70 646.94 423.40 649.07 417.14 C 650.26 414.51 650.96 411.67 650.87 408.77 C 651.35 407.23 651.82 405.68 652.27 404.13 C 653.32 403.05 653.42 401.51 653.10 400.12 C 654.51 396.91 654.82 393.39 654.95 389.93 C 656.57 389.21 656.37 387.22 655.77 385.88 C 656.20 383.34 656.79 380.82 657.27 378.29 Z" />
<path fill="#84c1df" d=" M 2.83 369.15 C 3.09 370.65 3.59 373.66 3.85 375.17 C 3.59 373.66 3.09 370.65 2.83 369.15 Z" />
<path fill="#1590c8" d=" M 237.21 454.18 C 267.78 427.04 298.80 400.36 328.93 372.72 C 333.46 372.56 333.49 378.28 335.59 381.18 C 336.51 383.16 337.54 385.09 338.69 386.96 C 342.62 394.24 346.92 401.35 350.15 408.99 C 344.00 403.89 342.82 394.18 335.69 390.25 C 330.88 389.32 326.72 393.42 323.15 396.18 C 307.11 410.47 291.07 424.78 274.85 438.87 C 265.83 448.35 252.37 455.13 248.39 468.41 C 245.18 485.40 257.44 503.75 247.66 519.72 C 242.64 523.18 236.49 525.35 230.31 525.06 L 230.06 524.27 C 230.56 523.98 231.55 523.40 232.05 523.11 C 237.17 519.24 243.64 514.97 245.99 508.85 C 243.42 493.54 239.90 478.29 236.95 463.01 C 236.77 460.07 234.50 456.52 237.21 454.18 Z" />
<path fill="#7ebddc" d=" M 4.23 376.90 C 5.43 378.28 5.36 380.15 5.11 381.86 C 3.27 380.83 3.62 378.55 4.23 376.90 Z" />
<path fill="#81bedd" d=" M 5.11 381.86 C 6.16 385.86 6.90 389.92 6.93 394.08 C 5.40 390.16 4.87 386.04 5.11 381.86 Z" />
<path fill="#8bcae6" d=" M 654.95 389.93 C 654.55 388.52 654.62 386.93 655.77 385.88 C 656.37 387.22 656.57 389.21 654.95 389.93 Z" />
<path fill="#7fc6e6" d=" M 653.10 400.12 C 652.89 396.62 653.73 393.20 654.95 389.93 C 654.82 393.39 654.51 396.91 653.10 400.12 Z" />
<path fill="#8bc3df" d=" M 6.93 394.08 C 8.55 394.79 8.39 396.75 7.84 398.13 C 6.66 397.10 6.56 395.49 6.93 394.08 Z" />
<path fill="#86bfdd" d=" M 8.15 398.87 C 9.34 399.87 9.43 401.47 9.07 402.89 C 7.43 402.21 7.61 400.22 8.15 398.87 Z" />
<path fill="#84c8e5" d=" M 652.27 404.13 C 651.62 402.80 651.35 400.72 653.10 400.12 C 653.42 401.51 653.32 403.05 652.27 404.13 Z" />
<path fill="#86c0dd" d=" M 9.07 402.89 C 10.43 405.79 11.11 408.93 10.92 412.15 C 9.58 409.24 8.89 406.09 9.07 402.89 Z" />
<path fill="#82c7e4" d=" M 649.07 417.14 C 648.86 414.21 649.47 411.35 650.87 408.77 C 650.96 411.67 650.26 414.51 649.07 417.14 Z" />
<path fill="#68bae4" d=" M 150.03 413.89 C 154.17 411.49 159.42 415.50 163.88 415.68 L 163.09 416.14 C 158.65 415.97 154.38 414.65 150.03 413.89 Z" />
<path fill="#80c3e6" d=" M 163.09 416.14 L 163.88 415.68 C 165.34 415.66 166.88 415.91 167.99 416.97 C 166.34 417.30 164.28 417.67 163.09 416.14 Z" />
<path fill="#7dc1e5" d=" M 167.99 416.97 C 169.71 416.59 171.75 416.49 173.00 417.99 C 171.27 418.41 169.20 418.52 167.99 416.97 Z" />
<path fill="#69afd4" d=" M 13.05 417.86 C 14.39 420.10 15.05 422.62 14.83 425.25 C 13.70 422.93 13.05 420.43 13.05 417.86 Z" />
<path fill="#7fc2e5" d=" M 173.00 417.99 C 174.71 417.59 176.70 417.50 178.00 418.91 C 176.30 419.43 174.21 419.55 173.00 417.99 Z" />
<path fill="#89c7e6" d=" M 178.00 418.91 C 179.43 418.55 181.02 418.65 182.11 419.76 C 180.74 420.35 178.73 420.55 178.00 418.91 Z" />
<path fill="#80c3e5" d=" M 187.72 421.25 C 191.29 420.78 194.76 421.62 198.00 423.19 C 194.52 422.77 191.05 422.35 187.72 421.25 Z" />
<path fill="#7ac0e4" d=" M 198.00 423.19 C 200.87 422.91 203.79 422.61 206.40 421.30 C 205.18 425.12 201.19 424.08 198.00 423.19 Z" />
<path fill="#1681b9" d=" M 138.96 430.93 C 158.36 439.44 176.86 449.92 196.06 458.91 C 199.94 459.84 200.71 464.18 202.54 467.12 C 200.04 467.94 198.70 464.17 196.10 464.98 C 191.55 468.31 187.47 472.32 183.23 476.06 C 169.85 459.80 151.27 448.12 138.96 430.93 Z" />
<path fill="#7ebbdb" d=" M 17.21 431.97 C 19.00 433.49 19.60 435.76 18.79 437.98 C 17.53 436.24 16.62 434.15 17.21 431.97 Z" />
<path fill="#7cc4e3" d=" M 641.17 441.95 C 640.40 439.73 641.01 437.47 642.81 435.98 C 643.37 438.15 642.48 440.24 641.17 441.95 Z" />
<path fill="#7ac3e2" d=" M 637.08 451.99 C 636.51 450.05 637.32 448.18 638.90 447.00 C 639.48 448.94 638.68 450.83 637.08 451.99 Z" />
<path fill="#129ad8" d=" M 183.23 476.06 C 187.47 472.32 191.55 468.31 196.10 464.98 C 198.70 464.17 200.04 467.94 202.54 467.12 C 211.43 485.94 222.16 503.99 229.76 523.36 C 224.99 520.16 222.93 510.14 216.90 509.81 C 206.33 498.36 196.19 484.68 182.26 477.79 C 182.50 477.36 182.99 476.49 183.23 476.06 Z" />
<path fill="#05aaf4" d=" M 100.53 560.24 C 127.32 532.68 154.97 505.96 181.85 478.49 C 193.84 486.73 202.45 499.84 212.81 510.19 C 219.53 516.34 221.79 525.58 227.73 532.25 C 231.70 536.86 238.48 536.28 243.05 539.95 C 282.11 576.10 319.91 614.34 358.13 650.92 C 295.88 657.27 231.31 643.67 176.02 613.96 C 173.60 613.24 170.97 610.43 168.40 612.07 C 143.75 597.89 119.76 581.27 100.53 560.24 Z" />
<path fill="#83bad4" d=" M 232.05 523.11 C 236.00 517.72 241.22 513.47 245.99 508.85 C 243.64 514.97 237.17 519.24 232.05 523.11 Z" />
<path fill="#189bd6" d=" M 592.24 525.29 C 593.34 525.12 594.41 525.44 595.45 526.24 C 588.14 536.48 579.76 545.90 571.29 555.19 C 565.58 559.47 560.41 564.51 556.12 570.23 C 553.75 572.50 551.27 574.64 548.82 576.83 C 546.87 576.87 545.42 578.31 545.22 580.22 C 529.02 593.36 512.18 605.81 494.01 616.11 C 491.93 615.99 489.85 616.87 488.98 618.87 C 488.54 619.18 487.65 619.82 487.20 620.13 C 480.84 622.45 474.53 625.15 468.92 628.99 C 468.47 629.25 467.58 629.78 467.14 630.04 C 464.40 630.10 461.95 631.34 459.90 633.07 C 457.96 632.52 456.07 633.34 455.00 635.00 C 453.06 634.51 451.14 635.29 450.12 637.00 C 446.16 637.58 442.20 638.67 438.87 640.97 C 436.97 641.69 435.04 642.32 433.15 643.06 C 430.57 642.98 428.04 643.52 425.92 645.02 C 425.46 645.27 424.55 645.77 424.10 646.02 C 420.23 646.58 416.40 647.34 412.79 648.84 C 411.59 649.25 410.42 649.72 409.23 650.14 C 404.01 649.81 398.97 651.51 394.05 653.00 C 379.05 654.75 364.14 657.76 349.00 658.05 C 336.66 657.96 324.33 657.96 312.00 658.04 C 296.82 658.25 281.93 654.68 266.94 653.02 C 259.72 650.75 252.30 649.15 244.80 648.16 C 241.59 647.05 238.34 646.07 235.12 644.99 C 231.95 643.24 228.46 641.98 224.78 642.09 C 219.58 640.01 214.30 638.15 209.14 635.98 C 206.76 634.12 203.82 633.32 200.85 633.04 C 192.00 628.46 182.69 624.81 173.99 619.94 C 173.20 617.86 171.07 617.00 168.98 617.11 C 168.49 616.80 167.51 616.20 167.02 615.90 C 166.17 613.87 164.07 612.98 161.97 613.14 C 147.66 604.36 133.83 594.81 120.85 584.15 C 120.54 582.27 119.08 580.84 117.11 580.91 C 116.00 580.01 114.88 579.12 113.79 578.20 C 113.56 576.30 112.12 574.90 110.20 574.81 C 102.60 567.43 93.95 560.98 87.83 552.21 C 92.31 554.62 94.88 560.44 100.53 560.24 C 119.76 581.27 143.75 597.89 168.40 612.07 C 251.95 661.48 357.95 667.96 448.21 633.26 C 504.90 611.45 555.88 574.06 592.24 525.29 Z" />
<path fill="#8bc3df" d=" M 75.84 539.15 C 77.73 539.45 79.18 540.93 79.06 542.91 C 77.27 542.46 75.89 541.06 75.84 539.15 Z" />
<path fill="#7fbcdb" d=" M 82.69 547.13 C 84.72 548.13 86.36 549.71 87.26 551.81 C 85.19 550.85 83.61 549.21 82.69 547.13 Z" />
<path fill="#7fc5e4" d=" M 556.12 570.23 C 560.41 564.51 565.58 559.47 571.29 555.19 C 567.09 560.97 561.99 566.14 556.12 570.23 Z" />
<path fill="#8ecce9" d=" M 110.20 574.81 C 112.12 574.90 113.56 576.30 113.79 578.20 C 111.88 578.08 110.44 576.68 110.20 574.81 Z" />
<path fill="#8acae7" d=" M 545.22 580.22 C 545.42 578.31 546.87 576.87 548.82 576.83 C 548.52 578.68 547.11 580.07 545.22 580.22 Z" />
<path fill="#8acbe8" d=" M 117.11 580.91 C 119.08 580.84 120.54 582.27 120.85 584.15 C 118.93 584.11 117.51 582.72 117.11 580.91 Z" />
<path fill="#8ecde9" d=" M 161.97 613.14 C 164.07 612.98 166.17 613.87 167.02 615.90 C 164.94 615.99 162.86 615.12 161.97 613.14 Z" />
<path fill="#8acae6" d=" M 488.98 618.87 C 489.85 616.87 491.93 615.99 494.01 616.11 C 493.16 618.12 491.07 619.01 488.98 618.87 Z" />
<path fill="#90cde9" d=" M 168.98 617.11 C 171.07 617.00 173.20 617.86 173.99 619.94 C 171.91 619.96 169.84 619.11 168.98 617.11 Z" />
<path fill="#96d0e9" d=" M 468.92 628.99 C 474.53 625.15 480.84 622.45 487.20 620.13 C 481.93 624.46 475.39 627.07 468.92 628.99 Z" />
<path fill="#8dcce7" d=" M 459.90 633.07 C 461.95 631.34 464.40 630.10 467.14 630.04 C 465.01 631.63 462.57 632.81 459.90 633.07 Z" />
<path fill="#8acbe8" d=" M 200.85 633.04 C 203.82 633.32 206.76 634.12 209.14 635.98 C 206.18 635.67 203.25 634.86 200.85 633.04 Z" />
<path fill="#87c9e6" d=" M 455.00 635.00 C 456.07 633.34 457.96 632.52 459.90 633.07 C 458.80 634.69 456.92 635.47 455.00 635.00 Z" />
<path fill="#83c7e6" d=" M 450.12 637.00 C 451.14 635.29 453.06 634.51 455.00 635.00 C 453.91 636.64 452.04 637.43 450.12 637.00 Z" />
<path fill="#7ec4e4" d=" M 438.87 640.97 C 442.20 638.67 446.16 637.58 450.12 637.00 C 446.83 639.37 442.83 640.41 438.87 640.97 Z" />
<path fill="#7bc4e5" d=" M 224.78 642.09 C 228.46 641.98 231.95 643.24 235.12 644.99 C 231.48 644.92 228.02 643.69 224.78 642.09 Z" />
<path fill="#70bee1" d=" M 425.92 645.02 C 428.04 643.52 430.57 642.98 433.15 643.06 C 430.92 644.31 428.47 644.98 425.92 645.02 Z" />
<path fill="#8bcae7" d=" M 412.79 648.84 C 416.40 647.34 420.23 646.58 424.10 646.02 C 420.68 648.07 416.63 648.33 412.79 648.84 Z" />
<path fill="#87cae7" d=" M 244.80 648.16 C 252.30 649.15 259.72 650.75 266.94 653.02 C 259.36 652.51 251.92 650.75 244.80 648.16 Z" />
<path fill="#84c7e5" d=" M 394.05 653.00 C 398.97 651.51 404.01 649.81 409.23 650.14 C 404.42 652.08 399.16 652.52 394.05 653.00 Z" />
<path fill="#8ccbe8" d=" M 266.94 653.02 C 281.93 654.68 296.82 658.25 312.00 658.04 L 312.00 659.00 L 298.57 659.00 C 288.30 655.71 276.97 657.19 266.94 653.02 Z" />
<path fill="#8ccbe7" d=" M 349.00 658.05 C 364.14 657.76 379.05 654.75 394.05 653.00 C 384.28 657.56 372.87 656.21 362.56 659.00 L 349.01 659.00 L 349.00 658.05 Z" />
<path fill="#48adda" d=" M 312.00 658.04 C 324.33 657.96 336.66 657.96 349.00 658.05 L 349.01 659.00 L 312.00 659.00 L 312.00 658.04 Z" />
</svg>
